<?xml version="1.0" standalone="no"?>
<svg xmlns="http://www.w3.org/2000/svg" xmlns:xlink="http://www.w3.org/1999/xlink" width="125pt" height="488pt" viewBox="0.00 0.00 125.00 488.00">
<g id="graph0" class="graph" transform="translate(4,484) scale(1)" data-name="DFT">

<polygon fill="white" stroke="none" points="-4,4 -4,-484 121,-484 121,4 -4,4" style=""/>
<!-- 0 -->
<g id="node1" class="node" pointer-events="visible" data-name="0">

<ellipse fill="none" stroke="black" cx="90" cy="-462" rx="27" ry="18" style=""/>
<text text-anchor="middle" x="90" y="-457.8" font-family="Times,serif" font-size="14.00" style="">0</text>
</g>
<!-- 1 -->
<g id="node2" class="node" pointer-events="visible" data-name="1">

<ellipse fill="none" stroke="black" cx="90" cy="-373.2" rx="27" ry="18" style=""/>
<text text-anchor="middle" x="90" y="-369" font-family="Times,serif" font-size="14.00" style="">1</text>
</g>
<!-- 0&#45;&gt;1 -->
<g id="edge1" class="edge" data-name="0-&gt;1">

<path fill="none" stroke="black" d="M82.98,-444.2C80.95,-438.53 79.01,-432.08 78,-426 76.77,-418.63 76.77,-416.57 78,-409.2 78.4,-406.82 78.93,-404.39 79.56,-401.97" style=""/>
<polygon fill="black" stroke="black" points="82.9,-403.03 82.53,-392.44 76.22,-400.95 82.9,-403.03" style=""/>
<text text-anchor="middle" x="81.5" y="-413.4" font-family="Times,serif" font-size="14.00" style="">ϵ</text>
</g>
<!-- 0&#45;&gt;1 -->
<g id="edge2" class="edge" data-name="0-&gt;1">

<path fill="none" stroke="black" d="M90,-443.85C90,-432.16 90,-416.39 90,-402.82" style=""/>
<polygon fill="black" stroke="black" points="93.5,-403.12 90,-393.12 86.5,-403.12 93.5,-403.12" style=""/>
<text text-anchor="middle" x="93.11" y="-413.4" font-family="Times,serif" font-size="14.00" style="">a</text>
</g>
<!-- 2 -->
<g id="node3" class="node" pointer-events="visible" data-name="2">

<ellipse fill="none" stroke="black" cx="27" cy="-284.4" rx="27" ry="18" style=""/>
<text text-anchor="middle" x="27" y="-280.2" font-family="Times,serif" font-size="14.00" style="">2</text>
</g>
<!-- 1&#45;&gt;2 -->
<g id="edge3" class="edge" data-name="1-&gt;2">

<path fill="none" stroke="black" d="M78.74,-356.68C69.39,-343.8 55.92,-325.24 45.06,-310.29" style=""/>
<polygon fill="black" stroke="black" points="47.97,-308.34 39.27,-302.3 42.31,-312.45 47.97,-308.34" style=""/>
<text text-anchor="middle" x="68.5" y="-324.6" font-family="Times,serif" font-size="14.00" style="">b</text>
</g>
<!-- 3 -->
<g id="node4" class="node" pointer-events="visible" data-name="3">

<ellipse fill="none" stroke="black" cx="90" cy="-195.6" rx="27" ry="18" style=""/>
<text text-anchor="middle" x="90" y="-191.4" font-family="Times,serif" font-size="14.00" style="">3</text>
</g>
<!-- 1&#45;&gt;3 -->
<g id="edge6" class="edge" data-name="1-&gt;3">

<path fill="none" stroke="black" d="M90,-354.72C90,-324.48 90,-262.12 90,-225.4" style=""/>
<polygon fill="black" stroke="black" points="93.5,-225.52 90,-215.52 86.5,-225.52 93.5,-225.52" style=""/>
<text text-anchor="middle" x="93.5" y="-280.2" font-family="Times,serif" font-size="14.00" style="">ϵ</text>
</g>
<!-- 2&#45;&gt;3 -->
<g id="edge4" class="edge" data-name="2-&gt;3">

<path fill="none" stroke="black" d="M38.26,-267.88C47.61,-255 61.08,-236.44 71.94,-221.49" style=""/>
<polygon fill="black" stroke="black" points="74.69,-223.65 77.73,-213.5 69.03,-219.54 74.69,-223.65" style=""/>
<text text-anchor="middle" x="68.11" y="-235.8" font-family="Times,serif" font-size="14.00" style="">a</text>
</g>
<!-- 3&#45;&gt;1 -->
<g id="edge5" class="edge" data-name="3-&gt;1">

<path fill="none" stroke="black" d="M98.03,-212.94C100.45,-218.7 102.79,-225.3 104,-231.6 112.88,-277.69 112.88,-291.11 104,-337.2 103.49,-339.86 102.78,-342.57 101.94,-345.25" style=""/>
<polygon fill="black" stroke="black" points="98.73,-343.84 98.55,-354.44 105.3,-346.27 98.73,-343.84" style=""/>
<text text-anchor="middle" x="113.5" y="-280.2" font-family="Times,serif" font-size="14.00" style="">ϵ</text>
</g>
<!-- 4 -->
<g id="node5" class="node" pointer-events="visible" data-name="4">

<ellipse fill="none" stroke="black" cx="90" cy="-106.8" rx="27" ry="18" style=""/>
<text text-anchor="middle" x="90" y="-102.6" font-family="Times,serif" font-size="14.00" style="">4</text>
</g>
<!-- 3&#45;&gt;4 -->
<g id="edge7" class="edge" data-name="3-&gt;4">

<path fill="none" stroke="black" d="M82.98,-177.8C80.95,-172.13 79.01,-165.68 78,-159.6 76.77,-152.23 76.77,-150.17 78,-142.8 78.4,-140.42 78.93,-137.99 79.56,-135.57" style=""/>
<polygon fill="black" stroke="black" points="82.9,-136.63 82.53,-126.04 76.22,-134.55 82.9,-136.63" style=""/>
<text text-anchor="middle" x="81.5" y="-147" font-family="Times,serif" font-size="14.00" style="">ϵ</text>
</g>
<!-- 3&#45;&gt;4 -->
<g id="edge8" class="edge" data-name="3-&gt;4">

<path fill="none" stroke="black" d="M90,-177.45C90,-165.76 90,-149.99 90,-136.42" style=""/>
<polygon fill="black" stroke="black" points="93.5,-136.72 90,-126.72 86.5,-136.72 93.5,-136.72" style=""/>
<text text-anchor="middle" x="93.5" y="-147" font-family="Times,serif" font-size="14.00" style="">b</text>
</g>
<!-- 5 -->
<g id="node6" class="node" pointer-events="visible" data-name="5">

<ellipse fill="none" stroke="black" cx="90" cy="-18" rx="27" ry="18" style=""/>
<text text-anchor="middle" x="90" y="-13.8" font-family="Times,serif" font-size="14.00" style="">5</text>
</g>
<!-- 4&#45;&gt;5 -->
<g id="edge9" class="edge" data-name="4-&gt;5">

<path fill="none" stroke="black" d="M84.03,-88.92C82.3,-83.24 80.65,-76.82 79.79,-70.8 78.73,-63.41 78.73,-61.39 79.79,-54 80.12,-51.65 80.58,-49.24 81.11,-46.83" style=""/>
<polygon fill="black" stroke="black" points="84.45,-47.9 83.64,-37.34 77.69,-46.1 84.45,-47.9" style=""/>
<text text-anchor="middle" x="83.11" y="-58.2" font-family="Times,serif" font-size="14.00" style="">c</text>
</g>
<!-- 5&#45;&gt;4 -->
<g id="edge10" class="edge" data-name="5-&gt;4">

<path fill="none" stroke="black" d="M90,-36.41C90,-48.16 90,-63.94 90,-77.48" style=""/>
<polygon fill="black" stroke="black" points="86.5,-77.14 90,-87.14 93.5,-77.14 86.5,-77.14" style=""/>
<text text-anchor="middle" x="93.5" y="-58.2" font-family="Times,serif" font-size="14.00" style="">ϵ</text>
</g>
</g>
</svg>